<svg data-v-423bf9ae="" xmlns="http://www.w3.org/2000/svg" viewBox="0 0 237 90" class="iconLeft"><!----><!----><!----><g data-v-423bf9ae="" id="9f82e238-7d59-412d-a1c3-cf2df9bdde59" fill="#58a6ff" transform="matrix(5.639098067841383,0,0,5.639098067841383,97.28142449934506,-1.5225579536442382)"><path d="M6.68 13.43L6.68 6.75L5.42 6.75L5.42 8.13C5.39 9.97 4.91 12.50 3.23 12.50C2.49 12.50 2.13 12.08 2.13 11.02L2.13 6.75L0.87 6.75L0.87 11.27C0.87 12.71 1.43 13.55 2.88 13.55C4.20 13.55 5.00 12.91 5.45 11.77L5.57 13.43ZM8.53 2.93L8.53 11.56C8.53 12.85 9.00 13.47 10.35 13.47C10.50 13.47 10.64 13.45 10.79 13.44L10.79 12.43C10.65 12.46 10.56 12.46 10.43 12.46C9.95 12.46 9.80 12.14 9.80 11.54L9.80 2.93ZM15.37 9.90L17.96 6.75L16.56 6.75L14.34 9.42L13.22 9.42L13.22 2.93L11.94 2.93L11.94 13.43L13.22 13.43L13.22 10.49L14.38 10.49L16.69 13.43L18.10 13.43ZM24.67 13.43C24.54 12.78 24.51 11.63 24.51 10.57L24.51 7.22L24.50 7.22L24.50 7.03C23.79 6.75 22.68 6.61 21.90 6.61C19.63 6.61 18.41 7.94 18.41 10.42C18.41 12.70 19.49 13.57 20.94 13.57C22.02 13.57 22.81 13.08 23.28 11.89C23.31 12.38 23.37 12.87 23.46 13.43ZM21.21 12.52C20.29 12.52 19.70 11.93 19.70 10.35C19.70 8.50 20.50 7.59 21.94 7.59C22.33 7.59 22.78 7.64 23.24 7.73L23.24 7.88C23.18 11.83 22.16 12.52 21.21 12.52Z"></path></g><!----><g data-v-423bf9ae="" id="bb2839e2-79fb-474d-beb7-6d7bd3967a00" transform="matrix(1.137102513486156,0,0,1.137102513486156,-14.994102832926167,-11.429431148697674)" stroke="none" fill="#58a6ff"><path d="M86.139 51.081s-6.427-.346-14.657 3.3c0 0 11.394-13.347 12.998-24.323 0 0-4.716-.16-11.249 4.14 0 0 8.799-9.489 11.162-23.772-13.578 5.022-21.231 15.458-21.231 15.458 2.986-7.229 1.938-11.829 1.938-11.829C54.625 17.707 43.673 31.42 43.673 31.42c2.022-8.771.467-15.017.467-15.017-12.097 7.425-23.479 24.556-23.479 24.556-10.445 12.65-8.658 31.372 3.991 41.816 12.649 10.445 31.371 8.657 41.816-3.992.001-.001 14.669-14.419 19.671-27.702zM28.315 78.339c-8.817-7.28-10.063-20.329-2.782-29.146 7.28-8.817 20.328-10.063 29.145-2.782 8.817 7.281 10.063 20.329 2.783 29.145-7.28 8.818-20.329 10.064-29.146 2.783z"></path><path d="M53.236 72.068s-.184.34-.528.91a5.716 5.716 0 0 1-.708.983c-.301.37-.648.803-1.096 1.179l-.68.624c-.252.191-.526.374-.804.572-.542.418-1.192.732-1.855 1.082-.694.266-1.396.618-2.168.788-.754.241-1.554.328-2.347.45-.801.03-1.604.099-2.39.003-.791-.017-1.547-.233-2.279-.362-.716-.219-1.415-.4-2.026-.71l-.898-.411c-.271-.167-.535-.328-.786-.484-.513-.286-.926-.639-1.288-.944a5.856 5.856 0 0 1-.889-.837c-.455-.502-.692-.797-.692-.797s.363.15.957.431c.287.153.654.302 1.075.462.417.167.877.357 1.399.51.508.181 1.07.328 1.663.466.582.18 1.232.209 1.866.355.656.051 1.324.135 2.009.125.683.038 1.373-.031 2.064-.063.683-.1 1.375-.161 2.038-.328.675-.116 1.314-.328 1.949-.502.595-.265 1.23-.414 1.766-.701l.811-.371.734-.401c.487-.252.894-.519 1.267-.758a8.57 8.57 0 0 0 .976-.664c.536-.395.86-.607.86-.607z"></path></g><!----></svg>