<?xml version="1.0" encoding="UTF-8" standalone="no"?>
<svg
   xmlns:dc="http://purl.org/dc/elements/1.1/"
   xmlns:cc="http://creativecommons.org/ns#"
   xmlns:rdf="http://www.w3.org/1999/02/22-rdf-syntax-ns#"
   xmlns:svg="http://www.w3.org/2000/svg"
   xmlns="http://www.w3.org/2000/svg"
   xmlns:sodipodi="http://sodipodi.sourceforge.net/DTD/sodipodi-0.dtd"
   xmlns:inkscape="http://www.inkscape.org/namespaces/inkscape"
   version="1.1"
   id="svg18"
   width="82.187431"
   height="90">
  <metadata
     id="metadata24">
    <rdf:RDF>
      <cc:Work
         rdf:about="">
        <dc:format>image/svg+xml</dc:format>
        <dc:type
           rdf:resource="http://purl.org/dc/dcmitype/StillImage" />
      </cc:Work>
    </rdf:RDF>
  </metadata>
  <defs
     id="defs22" />
  <sodipodi:namedview
     pagecolor="#ffffff"
     bordercolor="#666666"
     borderopacity="1"
     objecttolerance="10"
     gridtolerance="10"
     guidetolerance="10"
     inkscape:pageopacity="0"
     inkscape:pageshadow="2"
     inkscape:window-width="640"
     inkscape:window-height="480"
     id="namedview20" />
  <inkscape:clipboard
     style="font-variation-settings:normal;opacity:1;vector-effect:none;fill:#58a6ff;fill-opacity:1;stroke:none;stroke-width:1.1371025;stroke-linecap:butt;stroke-linejoin:miter;stroke-miterlimit:4;stroke-dasharray:none;stroke-dashoffset:0;stroke-opacity:1;stop-color:#000000;stop-opacity:1"
     min="78.335287,0.084185665"
     max="160.52272,90.084185" />
  <g
     id="g26"
     transform="translate(-78.335287,-0.08418567)">
    <g
       data-v-423bf9ae=""
       id="bb2839e2-79fb-474d-beb7-6d7bd3967a00"
       transform="matrix(1.1371025,0,0,1.1371025,62.573846,-11.771245)"
       stroke="none"
       fill="#58a6ff">
      <path
         d="m 86.139,51.081 c 0,0 -6.427,-0.346 -14.657,3.3 0,0 11.394,-13.347 12.998,-24.323 0,0 -4.716,-0.16 -11.249,4.14 0,0 8.799,-9.489 11.162,-23.772 C 70.815,15.448 63.162,25.884 63.162,25.884 66.148,18.655 65.1,14.055 65.1,14.055 54.625,17.707 43.673,31.42 43.673,31.42 45.695,22.649 44.14,16.403 44.14,16.403 32.043,23.828 20.661,40.959 20.661,40.959 10.216,53.609 12.003,72.331 24.652,82.775 37.301,93.22 56.023,91.432 66.468,78.783 66.469,78.782 81.137,64.364 86.139,51.081 Z M 28.315,78.339 C 19.498,71.059 18.252,58.01 25.533,49.193 c 7.28,-8.817 20.328,-10.063 29.145,-2.782 8.817,7.281 10.063,20.329 2.783,29.145 -7.28,8.818 -20.329,10.064 -29.146,2.783 z"
         id="path5" />
      <path
         d="m 53.236,72.068 c 0,0 -0.184,0.34 -0.528,0.91 A 5.716,5.716 0 0 1 52,73.961 c -0.301,0.37 -0.648,0.803 -1.096,1.179 l -0.68,0.624 c -0.252,0.191 -0.526,0.374 -0.804,0.572 -0.542,0.418 -1.192,0.732 -1.855,1.082 -0.694,0.266 -1.396,0.618 -2.168,0.788 -0.754,0.241 -1.554,0.328 -2.347,0.45 -0.801,0.03 -1.604,0.099 -2.39,0.003 -0.791,-0.017 -1.547,-0.233 -2.279,-0.362 -0.716,-0.219 -1.415,-0.4 -2.026,-0.71 l -0.898,-0.411 c -0.271,-0.167 -0.535,-0.328 -0.786,-0.484 -0.513,-0.286 -0.926,-0.639 -1.288,-0.944 a 5.856,5.856 0 0 1 -0.889,-0.837 c -0.455,-0.502 -0.692,-0.797 -0.692,-0.797 0,0 0.363,0.15 0.957,0.431 0.287,0.153 0.654,0.302 1.075,0.462 0.417,0.167 0.877,0.357 1.399,0.51 0.508,0.181 1.07,0.328 1.663,0.466 0.582,0.18 1.232,0.209 1.866,0.355 0.656,0.051 1.324,0.135 2.009,0.125 0.683,0.038 1.373,-0.031 2.064,-0.063 0.683,-0.1 1.375,-0.161 2.038,-0.328 0.675,-0.116 1.314,-0.328 1.949,-0.502 0.595,-0.265 1.23,-0.414 1.766,-0.701 l 0.811,-0.371 0.734,-0.401 c 0.487,-0.252 0.894,-0.519 1.267,-0.758 a 8.57,8.57 0 0 0 0.976,-0.664 c 0.536,-0.395 0.86,-0.607 0.86,-0.607 z"
         id="path7" />
    </g>
  </g>
</svg>